# xmcd
#
# Track frame offsets: 
#        182
#        9657
#        21352
#        31537
#        43025
#        63750
#        75167
#        86230
#        94725
#        104257
#        111092
#        126765
#        138152
#        152592
#        164997
#        175615
#        182630
#        202402
#        219157
#        227720
#
# Disc length: 3126 seconds
#
# Revision: 3
# Processed by: cddbd v1.5.1PL2 Copyright (c) Steve Scherf et al.
# Submitted via: ExactAudioCopy v0.95b4
#
DISCID=000c3414
DTITLE=Fats Domino - Rockin' And Rollin'
DYEAR=1900
DGENRE=Rock and Roll
TTITLE0=My Girl Josephine (Hello Josephine)
TTITLE1=The Fat Man
TTITLE2=I'm Gonna Be A Wheel Someday
TTITLE3=Blue Monday
TTITLE4=Jambalaya (On The Bayou)
TTITLE5=Blueberry Hill
TTITLE6=Going To The River
TTITLE7=I'm Ready
TTITLE8=I Want To Walk You Home
TTITLE9=Whole Lotta Loving
TTITLE10=I Almost Lost My Mind
TTITLE11=Ain't That A Shame
TTITLE12=I'm In Love Again
TTITLE13=I'm Walkin'
TTITLE14=Walking To New Orleans
TTITLE15=Poor Me
TTITLE16=Let The Four Winds Blow
TTITLE17=Shake Rattle And Roll
TTITLE18=When The Saints Go Marching In
TTITLE19=Sentimental Jouney
EXTD=
EXTT0=
EXTT1=
EXTT2=
EXTT3=
EXTT4=
EXTT5=
EXTT6=
EXTT7=
EXTT8=
EXTT9=
EXTT10=
EXTT11=
EXTT12=
EXTT13=
EXTT14=
EXTT15=
EXTT16=
EXTT17=
EXTT18=
EXTT19=
PLAYORDER=
